<svg width="51" height="50" viewBox="0 0 51 50" fill="none" xmlns="http://www.w3.org/2000/svg">
<path d="M42.624 12.479C36.8945 8.19149 31.405 8.312 31.405 8.312L30.844 8.95299C37.6555 10.9965 40.821 14.0015 40.821 14.0015C31.0755 8.63599 18.6625 8.67449 8.52602 14.0015C8.52602 14.0015 11.8115 10.836 19.024 8.79249L18.6235 8.31149C18.6235 8.31149 13.174 8.19149 7.40452 12.4785C7.40452 12.4785 1.63452 22.856 1.63452 35.638C1.63452 35.638 5.00052 41.408 13.8555 41.6885C13.8555 41.6885 15.338 39.9255 16.54 38.403C11.4515 36.8805 9.52802 33.715 9.52802 33.715C12.725 35.7155 15.9575 36.9675 19.986 37.762C26.54 39.111 34.6925 37.724 40.7815 33.715C40.7815 33.715 38.778 36.9605 33.529 38.443C34.731 39.9255 36.1735 41.6485 36.1735 41.6485C45.0285 41.368 48.394 35.598 48.394 35.6385C48.3935 22.8565 42.624 12.479 42.624 12.479ZM17.5415 31.912C15.2975 31.912 13.4545 29.9485 13.4545 27.5045C13.6185 21.651 21.5055 21.669 21.6285 27.5045C21.6285 29.9485 19.825 31.912 17.5415 31.912ZM32.166 31.912C29.922 31.912 28.079 29.9485 28.079 27.5045C28.259 21.6625 36.0475 21.66 36.253 27.5045C36.253 29.9485 34.45 31.912 32.166 31.912Z" fill="#6665D2"/>
</svg>
