<svg width="51" height="50" viewBox="0 0 51 50" fill="none" xmlns="http://www.w3.org/2000/svg">
<g clip-path="url(#clip0_2_11)">
<path d="M16.6807 50C21.2807 50 25.014 46.2667 25.014 41.6667V33.3333H16.6807C12.0807 33.3333 8.34735 37.0667 8.34735 41.6667C8.34735 46.2667 12.0807 50 16.6807 50Z" fill="#0ACF83"/>
<path d="M8.34735 25C8.34735 20.4 12.0807 16.6667 16.6807 16.6667H25.014V33.3333H16.6807C12.0807 33.3333 8.34735 29.6 8.34735 25Z" fill="#A259FF"/>
<path d="M8.34735 8.33333C8.34735 3.73333 12.0807 0 16.6807 0H25.014V16.6667H16.6807C12.0807 16.6667 8.34735 12.9333 8.34735 8.33333Z" fill="#F24E1E"/>
<path d="M25.014 0H33.3474C37.9474 0 41.6807 3.73333 41.6807 8.33333C41.6807 12.9333 37.9474 16.6667 33.3474 16.6667H25.014V0Z" fill="#FF7262"/>
<path d="M41.6807 25C41.6807 29.6 37.9474 33.3333 33.3474 33.3333C28.7474 33.3333 25.014 29.6 25.014 25C25.014 20.4 28.7474 16.6667 33.3474 16.6667C37.9474 16.6667 41.6807 20.4 41.6807 25Z" fill="#1ABCFE"/>
</g>
<defs>
<clipPath id="clip0_2_11">
<rect width="50" height="50" fill="white" transform="translate(0.0140381)"/>
</clipPath>
</defs>
</svg>
