<svg width="51" height="50" viewBox="0 0 51 50" fill="none" xmlns="http://www.w3.org/2000/svg">
<path fill-rule="evenodd" clip-rule="evenodd" d="M25.0141 1.99335C11.9879 1.99335 1.42502 12.5539 1.42502 25.5824C1.42502 36.0051 8.184 44.8469 17.5567 47.9664C18.7352 48.1851 19.168 47.4547 19.168 46.8316C19.168 46.2691 19.1461 44.4109 19.136 42.4398C12.5735 43.8668 11.1887 39.6566 11.1887 39.6566C10.1156 36.9301 8.56955 36.2051 8.56955 36.2051C6.42893 34.741 8.73088 34.7715 8.73088 34.7715C11.0992 34.9375 12.3469 37.2023 12.3469 37.2023C14.4508 40.8078 17.8653 39.7656 19.2113 39.1633C19.4231 37.6387 20.0344 36.5976 20.709 36.0086C15.4696 35.4129 9.96135 33.3898 9.96135 24.3512C9.96135 21.7758 10.8832 19.6715 12.3922 18.0191C12.1469 17.4254 11.3395 15.0262 12.6203 11.7769C12.6203 11.7769 14.6008 11.143 19.1086 14.1949C20.9906 13.6719 23.009 13.409 25.0141 13.4C27.018 13.409 29.0375 13.6711 30.9231 14.1941C35.4254 11.1422 37.4035 11.7762 37.4035 11.7762C38.6875 15.025 37.8801 17.4246 37.6352 18.0183C39.1477 19.6707 40.0629 21.775 40.0629 24.3504C40.0629 33.4105 34.5445 35.4051 29.2918 35.9894C30.1383 36.7215 30.8922 38.1574 30.8922 40.3578C30.8922 43.5141 30.8649 46.0543 30.8649 46.8312C30.8649 47.459 31.2899 48.1945 32.4852 47.9629C41.8524 44.8402 48.6035 36.0012 48.6035 25.5824C48.6031 12.5547 38.0414 1.99335 25.0141 1.99335Z" fill="#181616"/>
<path d="M10.3594 35.8617C10.3074 35.9789 10.1231 36.0141 9.95511 35.934C9.78323 35.8574 9.68753 35.6977 9.743 35.5801C9.79378 35.459 9.97854 35.4258 10.1492 35.5066C10.3211 35.5836 10.4188 35.7449 10.359 35.8621L10.3594 35.8617ZM11.3149 36.9277C11.2028 37.032 10.9828 36.9836 10.8336 36.8184C10.6789 36.6543 10.65 36.4344 10.7645 36.3285C10.8809 36.2246 11.0942 36.2738 11.2489 36.4379C11.4028 36.6043 11.4332 36.8223 11.3153 36.9281L11.3149 36.9277ZM12.2453 38.2859C12.1008 38.3867 11.8641 38.2926 11.718 38.0828C11.5735 37.8727 11.5735 37.6207 11.7219 37.5203C11.8676 37.4195 12.1008 37.5105 12.2492 37.7184C12.393 37.9312 12.393 38.1836 12.2453 38.2859ZM13.5192 39.5988C13.3903 39.7414 13.1145 39.7031 12.9129 39.509C12.7071 39.3187 12.6496 39.048 12.7789 38.9059C12.9102 38.7629 13.1871 38.8027 13.3899 38.9957C13.5957 39.1855 13.6578 39.4566 13.52 39.5984L13.5192 39.5988ZM15.277 40.3609C15.2196 40.5457 14.9547 40.6297 14.6871 40.5508C14.4203 40.4699 14.2457 40.2539 14.3004 40.0672C14.3551 39.8809 14.6219 39.7937 14.891 39.8777C15.1578 39.9582 15.3325 40.173 15.277 40.3609ZM17.2078 40.5019C17.2145 40.6965 16.9879 40.8574 16.7078 40.8613C16.4254 40.868 16.1969 40.7101 16.1942 40.5187C16.1942 40.3223 16.416 40.1633 16.6981 40.1578C16.9782 40.1527 17.2082 40.309 17.2082 40.5016L17.2078 40.5019ZM19.0039 40.1965C19.0375 40.3859 18.8426 40.5809 18.5641 40.6328C18.2907 40.6836 18.0367 40.5656 18.0016 40.3777C17.968 40.1832 18.1664 39.9883 18.4399 39.9379C18.7188 39.8898 18.9688 40.0039 19.0039 40.1965Z" fill="#181616"/>
</svg>
