<svg width="50" height="50" viewBox="0 0 50 50" fill="none" xmlns="http://www.w3.org/2000/svg">
<g clip-path="url(#clip0_1_3)">
<path d="M49.9736 25.4677C49.9736 23.4193 49.8035 21.9244 49.4354 20.3742H25.498V29.62H39.5487C39.2655 31.9177 37.7358 35.3781 34.3363 37.7032L34.2887 38.0128L41.8572 43.7424L42.3816 43.7935C47.1973 39.4473 49.9736 33.0527 49.9736 25.4677Z" fill="#4285F4"/>
<path d="M25.498 49.8283C32.3817 49.8283 38.1605 47.6136 42.3816 43.7935L34.3363 37.7033C32.1834 39.1704 29.2939 40.1947 25.498 40.1947C18.7559 40.1947 13.0336 35.8487 10.9938 29.8416L10.6948 29.8664L2.82493 35.8181L2.72202 36.0977C6.91455 44.2363 15.5264 49.8283 25.498 49.8283Z" fill="#34A853"/>
<path d="M10.9938 29.8416C10.4556 28.2914 10.1441 26.6303 10.1441 24.9141C10.1441 23.1977 10.4556 21.5368 10.9655 19.9866L10.9512 19.6565L2.98273 13.6092L2.72201 13.7303C0.994063 17.1076 0.00256348 20.9002 0.00256348 24.9141C0.00256348 28.9281 0.994063 32.7204 2.72201 36.0977L10.9938 29.8416Z" fill="#FBBC05"/>
<path d="M25.498 9.6334C30.2854 9.6334 33.5147 11.6542 35.3561 13.3429L42.5515 6.47767C38.1324 2.46374 32.3816 0 25.498 0C15.5264 0 6.91455 5.59179 2.72202 13.7303L10.9655 19.9866C13.0336 13.9796 18.7559 9.6334 25.498 9.6334Z" fill="#EB4335"/>
</g>
<defs>
<clipPath id="clip0_1_3">
<rect width="50" height="50" fill="white"/>
</clipPath>
</defs>
</svg>
