<svg width="51" height="50" viewBox="0 0 51 50" fill="none" xmlns="http://www.w3.org/2000/svg">
<g clip-path="url(#clip0_2_6)">
<path d="M47.2363 0H2.79185C1.25772 0 0.0140686 1.24365 0.0140686 2.77778V47.2222C0.0140686 48.7563 1.25772 50 2.79185 50H47.2363C48.7704 50 50.0141 48.7563 50.0141 47.2222V2.77778C50.0141 1.24365 48.7704 0 47.2363 0Z" fill="#117EB8"/>
<path fill-rule="evenodd" clip-rule="evenodd" d="M9.13835 19.3389H15.821V40.8403H9.13835V19.3389ZM12.4807 8.65069C14.6175 8.65069 16.3536 10.3868 16.3536 12.5236C16.3536 14.6625 14.6175 16.3993 12.4807 16.3993C11.9658 16.409 11.454 16.316 10.9754 16.1257C10.4968 15.9354 10.061 15.6516 9.69337 15.2908C9.32575 14.9301 9.03372 14.4997 8.83437 14.0248C8.63502 13.5499 8.53235 13.04 8.53235 12.525C8.53235 12.0099 8.63502 11.5001 8.83437 11.0252C9.03372 10.5503 9.32575 10.1199 9.69337 9.75914C10.061 9.39841 10.4968 9.11459 10.9754 8.92427C11.454 8.73394 11.9658 8.64094 12.4807 8.65069ZM20.0127 19.3382H26.4224V22.2764H26.5113C27.4036 20.5861 29.5835 18.8042 32.8342 18.8042C39.6008 18.8042 40.8508 23.2576 40.8508 29.0472V40.8403H34.1724V30.384C34.1724 27.891 34.1265 24.6833 30.7001 24.6833C27.2231 24.6833 26.689 27.3993 26.689 30.2042V40.8403H20.012V19.3389L20.0127 19.3382Z" fill="white"/>
</g>
<defs>
<clipPath id="clip0_2_6">
<rect width="50" height="50" fill="white" transform="translate(0.0140686)"/>
</clipPath>
</defs>
</svg>
