<svg width="51" height="50" viewBox="0 0 51 50" fill="none" xmlns="http://www.w3.org/2000/svg">
<g clip-path="url(#clip0_3_5)">
<path d="M25.014 50C38.8213 50 50.014 38.8073 50.014 25C50.014 11.1927 38.8213 0 25.014 0C11.2067 0 0.0140381 11.1927 0.0140381 25C0.0140381 38.8073 11.2067 50 25.014 50Z" fill="white"/>
<path fill-rule="evenodd" clip-rule="evenodd" d="M29.6599 9.44583L12.3161 10.7229C10.9182 10.8437 10.4307 11.7552 10.4307 12.8479V31.8042C10.4307 32.6552 10.7349 33.3833 11.4651 34.3562L15.5422 39.6417C16.212 40.4927 16.8203 40.675 18.0995 40.6146L38.2401 39.399C39.9432 39.2781 40.4307 38.4875 40.4307 37.151V15.826C40.4307 15.1344 40.1568 14.9354 39.3505 14.3469C39.3046 14.3133 39.2588 14.2796 39.213 14.2458L33.6766 10.3573C32.338 9.38645 31.7901 9.26354 29.6599 9.44583ZM18.5557 15.476C16.9109 15.5865 16.538 15.6115 15.6036 14.8542L13.2286 12.9708C12.987 12.7271 13.1089 12.4229 13.7161 12.3625L30.3901 11.1479C31.7891 11.026 32.5193 11.5125 33.0672 11.9375L35.9276 14.0031C36.0495 14.0646 36.3526 14.4281 35.988 14.4281L18.7682 15.4615L18.5557 15.476ZM16.638 36.9688V18.8646C16.638 18.074 16.8807 17.7094 17.6109 17.6479L37.387 16.4937C38.0578 16.4333 38.362 16.8583 38.362 17.6479V35.6313C38.362 36.4219 38.2401 37.0906 37.1432 37.151L18.2193 38.2448C17.1245 38.3052 16.638 37.9417 16.638 36.9688ZM35.3203 19.8354C35.4411 20.3823 35.3203 20.9292 34.7714 20.9917L33.8589 21.1719V34.5385C33.0672 34.9635 32.338 35.2062 31.7297 35.2062C30.7557 35.2062 30.5109 34.9021 29.7818 33.9917L23.8172 24.6354V33.6875L25.7047 34.1135C25.7047 34.1135 25.7047 35.2073 24.1818 35.2073L19.9839 35.45C19.863 35.2063 19.9839 34.6 20.4109 34.4781L21.5047 34.175V22.2062L19.9839 22.0833C19.863 21.5365 20.1661 20.7469 21.0193 20.6865L25.5224 20.3823L31.7297 29.8615V21.476L30.1464 21.2948C30.0255 20.625 30.5109 20.1396 31.1203 20.0792L35.3203 19.8354Z" fill="black"/>
</g>
<defs>
<clipPath id="clip0_3_5">
<rect width="50" height="50" fill="white" transform="translate(0.0140381)"/>
</clipPath>
</defs>
</svg>
