<svg width="55" height="54" viewBox="0 0 55 54" fill="none" xmlns="http://www.w3.org/2000/svg">
<g clip-path="url(#clip0_3_8)">
<path fill-rule="evenodd" clip-rule="evenodd" d="M19.726 0.132996C19.0193 0.133652 18.3196 0.273519 17.667 0.544608C17.0143 0.815698 16.4214 1.2127 15.9222 1.71294C15.423 2.21318 15.0272 2.80687 14.7574 3.46009C14.4877 4.11331 14.3493 4.81327 14.35 5.52C14.3494 6.22664 14.4879 6.92649 14.7577 7.5796C15.0275 8.2327 15.4234 8.82627 15.9226 9.3264C16.4218 9.82654 17.0146 10.2235 17.6672 10.4945C18.3198 10.7655 19.0194 10.9053 19.726 10.906H25.102V5.52C25.1028 4.81327 24.9644 4.11331 24.6946 3.46009C24.4249 2.80687 24.0291 2.21318 23.5299 1.71294C23.0307 1.2127 22.4378 0.815698 21.7851 0.544608C21.1324 0.273519 20.4328 0.133652 19.726 0.132996ZM19.726 14.498H5.39004C4.6834 14.4987 3.9838 14.6385 3.3312 14.9095C2.6786 15.1805 2.08577 15.5775 1.58656 16.0776C1.08736 16.5777 0.691545 17.1713 0.421732 17.8244C0.151918 18.4775 0.0133845 19.1774 0.0140414 19.884C0.0132531 20.5907 0.151689 21.2907 0.421444 21.9439C0.691199 22.5971 1.08699 23.1908 1.58621 23.691C2.08543 24.1913 2.6783 24.5883 3.33097 24.8594C3.98364 25.1305 4.68331 25.2703 5.39004 25.271H19.726C20.4328 25.2703 21.1324 25.1305 21.7851 24.8594C22.4378 24.5883 23.0307 24.1913 23.5299 23.691C24.0291 23.1908 24.4249 22.5971 24.6946 21.9439C24.9644 21.2907 25.1028 20.5907 25.102 19.884C25.1027 19.1774 24.9642 18.4775 24.6944 17.8244C24.4245 17.1713 24.0287 16.5777 23.5295 16.0776C23.0303 15.5775 22.4375 15.1805 21.7849 14.9095C21.1323 14.6385 20.4327 14.4987 19.726 14.498Z" fill="#36C5F0"/>
<path fill-rule="evenodd" clip-rule="evenodd" d="M53.774 19.884C53.7747 19.1774 53.6362 18.4775 53.3663 17.8244C53.0965 17.1713 52.7007 16.5777 52.2015 16.0776C51.7023 15.5775 51.1095 15.1805 50.4569 14.9095C49.8043 14.6385 49.1047 14.4987 48.398 14.498C47.6914 14.4987 46.9918 14.6385 46.3392 14.9095C45.6866 15.1805 45.0938 15.5775 44.5946 16.0776C44.0954 16.5777 43.6995 17.1713 43.4297 17.8244C43.1599 18.4775 43.0214 19.1774 43.022 19.884V25.271H48.398C49.1048 25.2703 49.8044 25.1305 50.4571 24.8594C51.1098 24.5883 51.7026 24.1913 52.2019 23.691C52.7011 23.1908 53.0969 22.5971 53.3666 21.9439C53.6364 21.2907 53.7748 20.5907 53.774 19.884ZM39.438 19.884V5.52C39.4388 4.81327 39.3004 4.11331 39.0306 3.46009C38.7609 2.80687 38.3651 2.21318 37.8659 1.71294C37.3667 1.2127 36.7738 0.815698 36.1211 0.544608C35.4684 0.273519 34.7688 0.133652 34.062 0.132996C33.3553 0.133652 32.6556 0.273519 32.003 0.544608C31.3503 0.815698 30.7574 1.2127 30.2582 1.71294C29.759 2.21318 29.3632 2.80687 29.0934 3.46009C28.8237 4.11331 28.6853 4.81327 28.686 5.52V19.884C28.6853 20.5907 28.8237 21.2907 29.0934 21.9439C29.3632 22.5971 29.759 23.1908 30.2582 23.691C30.7574 24.1913 31.3503 24.5883 32.003 24.8594C32.6556 25.1305 33.3553 25.2703 34.062 25.271C34.7688 25.2703 35.4684 25.1305 36.1211 24.8594C36.7738 24.5883 37.3667 24.1913 37.8659 23.691C38.3651 23.1908 38.7609 22.5971 39.0306 21.9439C39.3004 21.2907 39.4388 20.5907 39.438 19.884Z" fill="#2EB67D"/>
<path fill-rule="evenodd" clip-rule="evenodd" d="M34.062 54C34.7688 53.9993 35.4684 53.8595 36.1211 53.5884C36.7738 53.3173 37.3667 52.9203 37.8659 52.4201C38.3651 51.9198 38.7609 51.3261 39.0306 50.6729C39.3004 50.0197 39.4388 49.3197 39.438 48.613C39.4387 47.9064 39.3002 47.2065 39.0303 46.5534C38.7605 45.9003 38.3647 45.3067 37.8655 44.8066C37.3663 44.3065 36.7735 43.9095 36.1209 43.6385C35.4683 43.3675 34.7687 43.2277 34.062 43.227H28.686V48.613C28.6853 49.3197 28.8237 50.0197 29.0934 50.6729C29.3632 51.3261 29.759 51.9198 30.2582 52.4201C30.7574 52.9203 31.3503 53.3173 32.003 53.5884C32.6556 53.8595 33.3553 53.9993 34.062 54ZM34.062 39.635H48.398C49.1047 39.6343 49.8043 39.4945 50.4569 39.2235C51.1095 38.9525 51.7023 38.5555 52.2015 38.0554C52.7007 37.5553 53.0965 36.9617 53.3663 36.3086C53.6362 35.6555 53.7747 34.9556 53.774 34.249C53.7748 33.5423 53.6364 32.8423 53.3666 32.1891C53.0969 31.5359 52.7011 30.9422 52.2019 30.4419C51.7026 29.9417 51.1098 29.5447 50.4571 29.2736C49.8044 29.0025 49.1048 28.8627 48.398 28.862H34.062C33.3553 28.8627 32.6556 29.0025 32.003 29.2736C31.3503 29.5447 30.7574 29.9417 30.2582 30.4419C29.759 30.9422 29.3632 31.5359 29.0934 32.1891C28.8237 32.8423 28.6853 33.5423 28.686 34.249C28.6854 34.9556 28.8239 35.6555 29.0937 36.3086C29.3635 36.9617 29.7594 37.5553 30.2586 38.0554C30.7578 38.5555 31.3506 38.9525 32.0032 39.2235C32.6558 39.4945 33.3554 39.6343 34.062 39.635Z" fill="#ECB22E"/>
<path fill-rule="evenodd" clip-rule="evenodd" d="M0.0140426 34.249C0.0133857 34.9556 0.151919 35.6555 0.421733 36.3086C0.691547 36.9617 1.08736 37.5553 1.58656 38.0554C2.08577 38.5555 2.6786 38.9525 3.3312 39.2235C3.98381 39.4945 4.6834 39.6343 5.39004 39.635C6.09669 39.6343 6.79628 39.4945 7.44888 39.2235C8.10148 38.9525 8.69431 38.5555 9.19352 38.0554C9.69273 37.5553 10.0885 36.9617 10.3584 36.3086C10.6282 35.6555 10.7667 34.9556 10.766 34.249V28.862H5.39004C4.68323 28.8627 3.98347 29.0026 3.33074 29.2737C2.67801 29.5449 2.08509 29.942 1.58586 30.4423C1.08662 30.9426 0.690854 31.5364 0.421158 32.1898C0.151462 32.8431 0.0131229 33.5422 0.0140426 34.249ZM14.35 34.249V48.613C14.3493 49.3197 14.4877 50.0197 14.7574 50.6729C15.0272 51.3261 15.423 51.9198 15.9222 52.4201C16.4214 52.9203 17.0143 53.3173 17.667 53.5884C18.3196 53.8595 19.0193 53.9993 19.726 54C20.4328 53.9993 21.1324 53.8595 21.7851 53.5884C22.4378 53.3173 23.0307 52.9203 23.5299 52.4201C24.0291 51.9198 24.4249 51.3261 24.6946 50.6729C24.9644 50.0197 25.1028 49.3197 25.102 48.613V34.25C25.1028 33.5433 24.9644 32.8433 24.6946 32.1901C24.4249 31.5369 24.0291 30.9432 23.5299 30.4429C23.0307 29.9427 22.4378 29.5457 21.7851 29.2746C21.1324 29.0035 20.4328 28.8637 19.726 28.863C19.0193 28.8637 18.3196 29.0035 17.667 29.2746C17.0143 29.5457 16.4214 29.9427 15.9222 30.4429C15.423 30.9432 15.0272 31.5369 14.7574 32.1901C14.4877 32.8433 14.3493 33.5423 14.35 34.249Z" fill="#E01E5A"/>
</g>
<defs>
<clipPath id="clip0_3_8">
<rect width="54" height="54" fill="white" transform="translate(0.0140381)"/>
</clipPath>
</defs>
</svg>
