<svg width="32" height="32" viewBox="0 0 32 32" fill="none" xmlns="http://www.w3.org/2000/svg">
<path d="M5.33334 29.3333H21.3333C22.8061 29.3333 24 28.1395 24 26.6667V5.33334C24 3.86058 22.8061 2.66667 21.3333 2.66667H5.33334C3.86058 2.66667 2.66667 3.86058 2.66667 5.33334V26.6667C2.66667 28.1395 3.86058 29.3333 5.33334 29.3333Z" stroke="#9810FA" stroke-width="2.66667" stroke-linecap="round" stroke-linejoin="round"/>
<path d="M24 9.33333H26.6667C28.1395 9.33333 29.3333 10.5272 29.3333 12V26.6667C29.3333 28.1395 28.1395 29.3333 26.6667 29.3333H24" stroke="#9810FA" stroke-width="2.66667" stroke-linecap="round" stroke-linejoin="round"/>
<path d="M8 8H18.6667" stroke="#9810FA" stroke-width="2.66667" stroke-linecap="round" stroke-linejoin="round"/>
<path d="M8 13.3333H18.6667" stroke="#9810FA" stroke-width="2.66667" stroke-linecap="round" stroke-linejoin="round"/>
<path d="M8 18.6667H18.6667" stroke="#9810FA" stroke-width="2.66667" stroke-linecap="round" stroke-linejoin="round"/>
<path d="M8 24H13.3333" stroke="#9810FA" stroke-width="2.66667" stroke-linecap="round" stroke-linejoin="round"/>
</svg>
